<svg width="20" height="20" viewBox="0 0 20 20" fill="none" xmlns="http://www.w3.org/2000/svg">
<path d="M7.5 16.875H3.75C3.58424 16.875 3.42527 16.8092 3.30806 16.6919C3.19085 16.5747 3.125 16.4158 3.125 16.25V12.7578C3.12472 12.6767 3.14044 12.5962 3.17128 12.5212C3.20211 12.4461 3.24745 12.3778 3.30469 12.3203L12.6797 2.94532C12.7378 2.88627 12.8072 2.83937 12.8836 2.80736C12.9601 2.77535 13.0421 2.75887 13.125 2.75887C13.2079 2.75887 13.2899 2.77535 13.3664 2.80736C13.4428 2.83937 13.5122 2.88627 13.5703 2.94532L17.0547 6.4297C17.1137 6.48785 17.1606 6.55717 17.1927 6.63362C17.2247 6.71007 17.2411 6.79213 17.2411 6.87501C17.2411 6.95789 17.2247 7.03994 17.1927 7.11639C17.1606 7.19284 17.1137 7.26216 17.0547 7.32032L7.5 16.875Z" stroke="#007FFF" stroke-width="1.25" stroke-linecap="round" stroke-linejoin="round"/>
<path d="M10.625 5L15 9.375" stroke="#007FFF" stroke-width="1.25" stroke-linecap="round" stroke-linejoin="round"/>
<path d="M16.875 16.875H7.5L3.16406 12.5391" stroke="#007FFF" stroke-width="1.25" stroke-linecap="round" stroke-linejoin="round"/>
<path d="M12.8125 7.1875L5.3125 14.6875" stroke="#007FFF" stroke-width="1.25" stroke-linecap="round" stroke-linejoin="round"/>
</svg>
